<svg width="182" height="124" viewBox="0 0 182 124" xmlns="http://www.w3.org/2000/svg"><g fill="none" fill-rule="evenodd"><path fill="#FF8A50" d="M3 1h177v31H3z"/><path d="M168.1 121.5H13.9c-6 0-10.9-4.9-10.9-10.9V2.5h176v108.1c0 6-4.9 10.9-10.9 10.9zM4.396 31.8h171.822" stroke="#592ACB" stroke-width="5" stroke-linecap="round" stroke-linejoin="round"/><g transform="translate(13 13)" fill="#592ACB"><circle cx="4.2" cy="4.1" r="3.5"/><circle cx="18.3" cy="4.1" r="3.5"/><circle cx="32.4" cy="4.1" r="3.5"/></g><path d="M24.6 50.5h56.6M90.6 50.5h67.1M24.6 65.2h75.3M107.4 65.2h32.5" stroke="#592ACB" stroke-width="5" stroke-linecap="round" stroke-linejoin="round"/><path d="M41.8 105.1h17.6M24.6 83.8l10.6 10.7-10.6 10.6" stroke="#952BB9" stroke-width="5" stroke-linecap="round" stroke-linejoin="round"/></g></svg>