<svg width="116" height="124" viewBox="0 0 116 124" xmlns="http://www.w3.org/2000/svg"><g stroke-width="5" fill="none" fill-rule="evenodd" stroke-linecap="round" stroke-linejoin="round"><g stroke="#FF8A50"><path d="M30.6 100.2v6.8M48.8 100.2v6.8M67 100.2v6.8M85.3 100.2v6.8"/></g><g stroke="#FF8A50"><path d="M44.3 23.6v6.8M58 23.6v6.8M71.7 23.6v6.8"/><g><path d="M44.3 77.5v6.8M58 77.5v6.8M71.7 77.5v6.8"/></g><g><path d="M27.2 68.5H34M27.2 54.8H34M27.2 41.1H34"/></g><g><path d="M83.4 68.5h6.8M83.4 54.8h6.8M83.4 41.1h6.8"/></g></g><path d="M112.6 116.4c0 2.7-2.2 4.9-4.9 4.9H8.3c-2.7 0-4.9-2.2-4.9-4.9v-50c4.8-2.1 8.1-6.9 8.1-12.5S8.2 43.5 3.4 41.4V7.5c0-2.7 2.2-4.9 4.9-4.9h99.3c2.7 0 4.9 2.2 4.9 4.9v33.9c-4.8 2.1-8.1 6.9-8.1 12.5s3.3 10.4 8.1 12.5v50h.1z" stroke="#592ACB"/><path d="M78.9 76.6H38.5c-2.5 0-4.5-2-4.5-4.5V35.8c0-2.5 2-4.5 4.5-4.5h40.4c2.5 0 4.5 2 4.5 4.5v36.3c0 2.5-2.1 4.5-4.5 4.5z" stroke="#952BB9" fill="#FF8A50"/></g></svg>