<svg xmlns="http://www.w3.org/2000/svg" xmlns:xlink="http://www.w3.org/1999/xlink" width="80" height="80" viewBox="0 0 80 80"><defs><linearGradient id="a" x1="54.419" y1="9.758" x2="16.72" y2="75.055" gradientUnits="userSpaceOnUse"><stop offset="0" stop-color="#ff9640"/><stop offset=".6" stop-color="#fc4055"/><stop offset="1" stop-color="#e31587"/></linearGradient><linearGradient id="b" x1="54.419" y1="9.758" x2="16.72" y2="75.055" gradientUnits="userSpaceOnUse"><stop offset="0" stop-color="#fff36e" stop-opacity=".8"/><stop offset=".094" stop-color="#fff36e" stop-opacity=".699"/><stop offset=".752" stop-color="#fff36e" stop-opacity="0"/></linearGradient><linearGradient id="c" x1="35.583" y1="53.055" x2="67.226" y2="21.412" gradientUnits="userSpaceOnUse"><stop offset="0" stop-color="#0090ed"/><stop offset=".325" stop-color="#5b6df8"/><stop offset=".529" stop-color="#9059ff"/><stop offset="1" stop-color="#b833e1"/></linearGradient><linearGradient id="d" x1="46.271" y1="56.809" x2="51.587" y2="63.145" gradientUnits="userSpaceOnUse"><stop offset="0" stop-color="#960e18" stop-opacity=".6"/><stop offset=".192" stop-color="#ac1624" stop-opacity=".476"/><stop offset=".579" stop-color="#e42c41" stop-opacity=".156"/><stop offset=".75" stop-color="#ff3750" stop-opacity="0"/></linearGradient><linearGradient id="e" x1="60.476" y1="70.615" x2="74.703" y2="33.486" gradientUnits="userSpaceOnUse"><stop offset="0" stop-color="#054096" stop-opacity=".5"/><stop offset=".054" stop-color="#0f3d9c" stop-opacity=".441"/><stop offset=".261" stop-color="#2f35b1" stop-opacity=".249"/><stop offset=".466" stop-color="#462fbf" stop-opacity=".111"/><stop offset=".669" stop-color="#542bc8" stop-opacity=".028"/><stop offset=".864" stop-color="#592acb" stop-opacity="0"/></linearGradient><linearGradient id="f" x1="41.912" y1="5.95" x2="74.239" y2="33.449" gradientUnits="userSpaceOnUse"><stop offset="0" stop-color="#722291" stop-opacity=".5"/><stop offset=".5" stop-color="#722291" stop-opacity="0"/></linearGradient><symbol id="g" data-name="Icon 80 (Full Color)" viewBox="0 0 74 79.866"><path d="M69.363 16.646l-28-15.518a9 9 0 0 0-8.726 0l-28 15.518A9 9 0 0 0 0 24.518v30.83a9 9 0 0 0 4.309 7.681l26.606 16.248a4 4 0 0 0 5.617-1.536 4.132 4.132 0 0 0-1.614-5.394L9.436 56.786A3 3 0 0 1 8 54.226V25.7a3 3 0 0 1 1.546-2.624l26-14.41a3 3 0 0 1 2.908 0l26 14.41A3 3 0 0 1 66 25.7v28.513a3 3 0 0 1-1.444 2.565l-9.233 5.6-4.278-6.948a21.106 21.106 0 1 0-6.845 4.135l6.4 10.394a4 4 0 0 0 5.482 1.324l13.594-8.25A9 9 0 0 0 74 55.339V24.518a9 9 0 0 0-4.637-7.872zM24 39.863a13 13 0 1 1 13 13 13.015 13.015 0 0 1-13-13z" fill="url(#a)"/><path d="M69.363 16.646l-28-15.518a9 9 0 0 0-8.726 0l-28 15.518A9 9 0 0 0 0 24.518v30.83a9 9 0 0 0 4.309 7.681l26.606 16.248a4 4 0 0 0 5.617-1.536 4.132 4.132 0 0 0-1.614-5.394L9.436 56.786A3 3 0 0 1 8 54.226V25.7a3 3 0 0 1 1.546-2.624l26-14.41a3 3 0 0 1 2.908 0l26 14.41A3 3 0 0 1 66 25.7v28.513a3 3 0 0 1-1.444 2.565l-9.233 5.6-4.278-6.948a21.106 21.106 0 1 0-6.845 4.135l6.4 10.394a4 4 0 0 0 5.482 1.324l13.594-8.25A9 9 0 0 0 74 55.339V24.518a9 9 0 0 0-4.637-7.872zM24 39.863a13 13 0 1 1 13 13 13.015 13.015 0 0 1-13-13z" fill="url(#b)"/><path d="M40.868 5.673a8.875 8.875 0 0 1 8.651-.024l.8.443 19.044 10.554A9 9 0 0 1 74 24.518v30.821a9 9 0 0 1-4.331 7.694l-5.161 3.132a5.863 5.863 0 0 1-8.018-1.912l-1.167-1.872 9.233-5.6A3 3 0 0 0 66 54.213V25.7a3 3 0 0 0-1.546-2.624l-26-14.41a3 3 0 0 0-2.908 0z" fill="url(#c)"/><path d="M48.447 66.471L44.2 59.565a20.985 20.985 0 0 0 6.848-4.135l4.278 6.951z" opacity=".9" fill="url(#d)"/><path d="M66 54.213a3 3 0 0 1-1.444 2.565l-9.233 5.6 1.167 1.872a5.863 5.863 0 0 0 8.018 1.912l5.161-3.132A9 9 0 0 0 74 55.339v-16.01h-8z" opacity=".9" fill="url(#e)"/><path d="M69.363 16.646L50.32 6.092l-.8-.443a8.875 8.875 0 0 0-8.651.024l-5.322 2.99a3 3 0 0 1 2.908 0l26 14.41A3 3 0 0 1 66 25.7v13.629h8V24.518a9 9 0 0 0-4.637-7.872z" fill="url(#f)"/></symbol></defs><use data-name="Icon 80 (Full Color)" width="74" height="79.866" transform="translate(3 .137)" xlink:href="#g"/></svg>