<svg xmlns="http://www.w3.org/2000/svg" width="80" height="80" viewBox="0 0 80 80"><defs><linearGradient id="a" x1="64.51" y1="15.364" x2="14.037" y2="66.212" gradientUnits="userSpaceOnUse"><stop offset="0" stop-color="#ff9640"/><stop offset=".6" stop-color="#fc4055"/><stop offset="1" stop-color="#e31587"/></linearGradient><linearGradient id="b" x1="65.224" y1="7.341" x2="25.773" y2="58.44" gradientUnits="userSpaceOnUse"><stop offset="0" stop-color="#fff36e" stop-opacity=".8"/><stop offset=".094" stop-color="#fff36e" stop-opacity=".699"/><stop offset=".752" stop-color="#fff36e" stop-opacity="0"/></linearGradient><linearGradient id="c" x1="13.158" y1="72.895" x2="55.479" y2="30.575" gradientUnits="userSpaceOnUse"><stop offset="0" stop-color="#0090ed"/><stop offset=".325" stop-color="#5b6df8"/><stop offset=".529" stop-color="#9059ff"/><stop offset="1" stop-color="#b833e1"/></linearGradient><linearGradient id="d" x1="-.1" y1="40.341" x2="24.498" y2="58.395" gradientUnits="userSpaceOnUse"><stop offset="0" stop-color="#054096" stop-opacity=".6"/><stop offset=".127" stop-color="#1b3aa4" stop-opacity=".441"/><stop offset=".315" stop-color="#3633b5" stop-opacity=".249"/><stop offset=".502" stop-color="#4a2ec1" stop-opacity=".111"/><stop offset=".686" stop-color="#552bc9" stop-opacity=".028"/><stop offset=".864" stop-color="#592acb" stop-opacity="0"/></linearGradient><linearGradient id="e" x1="75.497" y1="39.04" x2="67.047" y2="53.675" gradientUnits="userSpaceOnUse"><stop offset="0" stop-color="#722291" stop-opacity=".5"/><stop offset=".5" stop-color="#722291" stop-opacity="0"/></linearGradient></defs><path d="M39.994 80a14.559 14.559 0 0 1-9.507-3.395A279.9 279.9 0 0 1 3.418 49.528a15.021 15.021 0 0 1-.018-19.04A279.767 279.767 0 0 1 30.471 3.419a15.023 15.023 0 0 1 19.042-.014A280.029 280.029 0 0 1 76.578 30.5a15.023 15.023 0 0 1 .014 19.041 160.244 160.244 0 0 1-2.769 3.075l-.913 1a4.065 4.065 0 0 1-5.046.832 4.005 4.005 0 0 1-.932-6.15l1-1.088a149.103 149.103 0 0 0 2.624-2.913 7.042 7.042 0 0 0-.015-8.551 271.95 271.95 0 0 0-26.269-26.3 7.041 7.041 0 0 0-8.552.014A271.79 271.79 0 0 0 9.445 35.732a7.042 7.042 0 0 0 .014 8.552 271.813 271.813 0 0 0 26.273 26.283 7.044 7.044 0 0 0 8.552-.014c4.121-3.6 7.72-6.882 10.917-9.963L44.175 50.518l-.087-.082A6.906 6.906 0 0 1 42 45.305a7.114 7.114 0 0 1 2.447-5.153C46.671 38.214 48 35.915 48 34a8 8 0 0 0-15.963-.8c-.295 3.154 2.681 6.07 3.6 6.888a7 7 0 0 1-.031 10.5l-4.867 4.332a4.065 4.065 0 0 1-5.109.3 4 4 0 0 1-.284-6.214l3.381-3a1.007 1.007 0 0 0 .051-1.443c-3.394-3.649-5.093-7.968-4.706-12.1A16 16 0 0 1 56 34a15.925 15.925 0 0 1-4.77 10.718 1 1 0 0 0 .033 1.439l11.69 10.68a5.079 5.079 0 0 1 1.614 3.628 5.016 5.016 0 0 1-1.467 3.594C59.232 67.9 54.8 72 49.529 76.594A14.606 14.606 0 0 1 39.994 80z" fill="url(#a)"/><path d="M39.994 80a14.559 14.559 0 0 1-9.507-3.395A279.9 279.9 0 0 1 3.418 49.528a15.021 15.021 0 0 1-.018-19.04A279.767 279.767 0 0 1 30.471 3.419a15.023 15.023 0 0 1 19.042-.014A280.029 280.029 0 0 1 76.578 30.5a15.023 15.023 0 0 1 .014 19.041 160.244 160.244 0 0 1-2.769 3.075l-.913 1a4.065 4.065 0 0 1-5.046.832 4.005 4.005 0 0 1-.932-6.15l1-1.088a149.103 149.103 0 0 0 2.624-2.913 7.042 7.042 0 0 0-.015-8.551 271.95 271.95 0 0 0-26.269-26.3 7.041 7.041 0 0 0-8.552.014A271.79 271.79 0 0 0 9.445 35.732a7.042 7.042 0 0 0 .014 8.552 271.813 271.813 0 0 0 26.273 26.283 7.044 7.044 0 0 0 8.552-.014c4.121-3.6 7.72-6.882 10.917-9.963L44.175 50.518l-.087-.082A6.906 6.906 0 0 1 42 45.305a7.114 7.114 0 0 1 2.447-5.153C46.671 38.214 48 35.915 48 34a8 8 0 0 0-15.963-.8c-.295 3.154 2.681 6.07 3.6 6.888a7 7 0 0 1-.031 10.5l-4.867 4.332a4.065 4.065 0 0 1-5.109.3 4 4 0 0 1-.284-6.214l3.381-3a1.007 1.007 0 0 0 .051-1.443c-3.394-3.649-5.093-7.968-4.706-12.1A16 16 0 0 1 56 34a15.925 15.925 0 0 1-4.77 10.718 1 1 0 0 0 .033 1.439l11.69 10.68a5.079 5.079 0 0 1 1.614 3.628 5.016 5.016 0 0 1-1.467 3.594C59.232 67.9 54.8 72 49.529 76.594A14.606 14.606 0 0 1 39.994 80z" fill="url(#b)"/><path d="M75.369 41.656a37.313 37.313 0 0 0-4.832-5.911 7.042 7.042 0 0 1 .015 8.551c-.96 1.1-1.743 1.953-2.624 2.913l-.84.917a4.151 4.151 0 0 0-.051 5.673 4 4 0 0 0 5.807-.112l.979-1.071a225.682 225.682 0 0 0 1.574-1.727l.06-.074c1.543-1.928 2.6-5.027-.088-9.159zm-18.292 20.81L55.2 60.59c-3.2 3.081-6.8 6.365-10.917 9.963a7.044 7.044 0 0 1-8.552.014A271.813 271.813 0 0 1 9.459 44.284a7.042 7.042 0 0 1-.014-8.552s-3.8 4.331-4.565 5.6a9.176 9.176 0 0 0 .852 10.815 279.447 279.447 0 0 0 24.755 24.46 15.024 15.024 0 0 0 19.042-.014c2.867-2.5 5.487-4.858 7.9-7.1l.025-.023a4.415 4.415 0 0 0 .528-5.879 13.488 13.488 0 0 0-.905-1.125z" fill="url(#c)"/><path d="M9.459 44.284a7.042 7.042 0 0 1-.014-8.552s-3.8 4.331-4.565 5.6a9.176 9.176 0 0 0 .852 10.815A282.118 282.118 0 0 0 18.891 65.9l5.657-5.657A275.396 275.396 0 0 1 9.459 44.284z" opacity=".9" fill="url(#d)"/><path d="M75.369 41.656a37.313 37.313 0 0 0-4.832-5.911 7.042 7.042 0 0 1 .015 8.551c-.96 1.1-1.743 1.953-2.624 2.913l-.84.917a4.151 4.151 0 0 0-.051 5.673 4 4 0 0 0 5.807-.112l.979-1.071a225.682 225.682 0 0 0 1.574-1.727l.06-.074c1.543-1.928 2.6-5.027-.088-9.159z" fill="url(#e)"/></svg>
